<svg width="128" height="128" xmlns="http://www.w3.org/2000/svg" clip-rule="evenodd">

 <g>
  <title>background</title>
  <rect fill="none" id="canvas_background" height="402" width="582" y="-1" x="-1"/>
 </g>
 <g>
  <title>Layer 1</title>
  <rect fill="none" y="0" x="0.211" width="128" id="Search" height="128"/>
  <path fill="#fcca64" id="svg_1" fill-rule="nonzero" d="m75.941,79.885152c-11.617,10.144 -28.988,13.34 -43.601,7.365c-17.62,-7.204 -28.844,-27.468 -25.473,-46.322c3.373,-18.867 20.915,-34.128 40.531,-34.563c0.361,-0.006 0.722,-0.008 1.084,-0.007c19.279,0.183 37.454,15.06 41.025,34.312c2.394,12.904 -1.734,26.845 -10.689,36.433l34.787,33.82c0.746,0.788 0.617,1.05 0.605,1.489c-0.042,1.525 -2.11,2.527 -3.394,1.379l-34.875,-33.906zm-27.976,-69.527c-17.208,0.163 -33.355,13.173 -36.934,30.111c-2.634,12.469 1.515,26.166 10.639,35.073c10.478,10.228 27.063,13.662 40.897,8.005c16.003,-6.542 26.182,-25.034 23.007,-42.148c-3.147,-16.967 -18.86,-30.64 -36.627,-31.035c-0.328,-0.005 -0.655,-0.007 -0.982,-0.006z"/>
 </g>
</svg>